<?xml version="1.0" encoding="UTF-8"?>
<svg id="Layer_1" data-name="Layer 1" xmlns="http://www.w3.org/2000/svg" version="1.1" viewBox="0 0 512 512">
  <defs>
    <style>
      .cls-1 {
        fill: #7d3f98;
        stroke-width: 0px;
      }
    </style>
  </defs>
  <path class="cls-1" d="M233.41,271.46c23.93,0,36.21-7.51,36.21-23.66,0-13.94-10.13-23.21-32.13-23.21-26.66,0-37.32,11.9-39.75,33.21-3.89-.25-8.14-.33-13.94-.36,0-1.16.03-2.32.03-3.51,0-21.61-8.94-29.42-32.79-29.42-11.65,0-21.92,1.74-28.18,4.28l.94,17.25c5.47-2.9,13.61-5.69,21.34-5.69,10.9,0,14.22,4.5,14.22,15.29l-.03,1.6c-.75-.03-2.68-.03-3.73-.03-27.16,0-39.75,8.23-39.75,23.46s7.81,24.95,30.09,24.95c11.73,0,23.32-1.66,38.26-1.66-1.1-6.29-1.13-15.35-1.13-21.56,0-3.28.17-7.2.33-11.65,6.38.06,11.07.22,14.16.36,2.32,25.23,15.4,34.56,42.65,34.56,10.07,0,20.26-1.71,25.59-4.2l-.94-17.25c-5.3,3.06-12.67,5.58-20.76,5.58-13.39,0-20.65-6.98-20.65-18.02v-.52c2.4.11,7.18.19,9.96.19ZM151.73,290.56c-8.28,0-11.81-2.76-11.81-9.69s4.5-10.46,15.82-10.46c1.05,0,2.32-.03,3.23.06-.06,6.46-.19,13.99.17,19.24-1.96.52-4.86.86-7.4.86ZM223.33,258.13v-.39c0-10.82,3.42-18.77,13.36-18.77,5.63,0,9.25,2.95,9.25,8.31,0,7.54-5.02,11.04-15.46,11.04-2.51,0-5.19-.03-7.15-.19ZM318.56,288.41c-8,0-10.35-3.17-10.35-14.79v-30h15.79v-16.67h-15.54c0-5.91.47-14.63.97-20.62h-14.63c-1.93,14.57-6.16,22.08-19.46,24.29-.06,3.92.17,9.27,0,13h8.86c-.14,8.28-.39,23.41-.39,37.18,0,17.58,9.11,24.79,26.22,24.79,8.34,0,14.46-1.21,16.51-1.79l-1.05-17.14c-1.49,1.02-4.44,1.77-6.93,1.77ZM485.12,253.93c0-21.61-8.94-29.42-32.76-29.42-11.68,0-21.92,1.74-28.18,4.28l.94,17.25c5.47-2.9,13.58-5.69,21.34-5.69,10.9,0,14.22,4.5,14.22,15.29v1.6c-.77-.03-2.68-.03-3.73-.03-27.19,0-39.75,8.23-39.75,23.46s7.81,24.95,30.09,24.95c11.73,0,23.32-1.66,38.23-1.66-1.08-6.29-1.1-15.35-1.1-21.56-.03-7.04.72-16.92.72-28.49ZM453.04,290.56c-8.31,0-11.81-2.76-11.81-9.69s4.5-10.46,15.82-10.46c1.02,0,2.29-.03,3.2.06-.03,6.46-.19,13.99.19,19.24-1.96.52-4.89.86-7.4.86ZM407.22,268.03c0-6.51.14-15.18.14-15.18,0-19.51-8.56-28.26-32.76-28.26-13.58,0-23.27,2.37-38.42,2.37.86,13.69.88,30.61.83,41.1.06,10.65-.36,29.76-.83,35.91h26c-.61-6.18-1.1-23.93-1.05-35.91,0-6.82.08-15.07.36-26.14,2.59-.88,5.88-1.55,9.44-1.55,9.11,0,12.03,4.28,12.03,16.01,0,0,.14,7.37.14,11.7,0,10.65-.36,29.76-.83,35.91h26c-.61-6.24-1.13-23.99-1.05-35.97ZM85.16,221.08c-2.43-2.43-5.6-3.64-8.75-3.64s-6.38,1.21-8.81,3.67l-14.41,14.44-14.44-14.44c-2.46-2.48-5.63-3.7-8.81-3.7s-6.35,1.21-8.78,3.64l-17.56,17.56c-4.83,4.83-4.83,12.7.03,17.56l49.52,49.52,49.52-49.52c4.86-4.83,4.83-12.7,0-17.56l-17.53-17.53ZM505.76,229c0-2.62-1.6-3.73-4.72-3.73h-4.91v12.92h2.13v-5.52h1.99l3.34,5.52h2.4l-3.62-5.69c1.96-.19,3.4-1.16,3.4-3.51ZM498.25,230.88v-3.78h2.57c1.27,0,2.82.19,2.82,1.74,0,1.88-1.41,2.01-2.98,2.01h-2.4v.03ZM500.57,219.87c-6.18,0-11.48,4.66-11.48,11.68s4.78,11.68,11.48,11.68c6.13,0,11.43-4.64,11.43-11.68s-5.3-11.68-11.43-11.68ZM500.57,241.18c-5.55,0-9-4.33-9-9.63,0-5.69,3.92-9.63,9-9.63s8.92,3.97,8.92,9.63-3.92,9.63-8.92,9.63Z"/>
</svg>